<svg width="1040" height="572" xmlns="http://www.w3.org/2000/svg" xmlns:xlink="http://www.w3.org/1999/xlink" xml:space="preserve" overflow="hidden"><defs><clipPath id="clip0"><rect x="2243" y="765" width="1040" height="572"/></clipPath><linearGradient x1="2763" y1="766" x2="2763" y2="1336" gradientUnits="userSpaceOnUse" spreadMethod="reflect" id="fill1"><stop offset="0" stop-color="#B5D5A7"/><stop offset="0.5" stop-color="#AACE99"/><stop offset="1" stop-color="#9CCA86"/></linearGradient></defs><g clip-path="url(#clip0)" transform="translate(-2243 -765)"><path d="M2826.75 1179.2C2830.72 1179.2 2834 1179.36 2836.57 1179.69 2839.15 1180.01 2841.22 1180.47 2842.77 1181.06 2844.33 1181.65 2845.43 1182.35 2846.08 1183.16 2846.72 1183.96 2847.04 1184.9 2847.04 1185.98L2847.04 1224.37 2842.29 1231.72C2841 1233.55 2839.96 1235.22 2839.15 1236.72 2838.35 1238.23 2837.7 1239.71 2837.22 1241.16 2836.74 1242.61 2836.41 1244.12 2836.25 1245.68 2836.09 1247.24 2836.01 1248.98 2836.01 1250.92L2836.01 1258.34C2836.01 1262.75 2836.79 1265.92 2838.35 1267.86 2839.9 1269.79 2842.13 1270.76 2845.03 1270.76L2847.04 1270.76 2847.04 1329.55C2847.04 1330.62 2846.72 1331.56 2846.08 1332.37 2845.43 1333.18 2844.33 1333.85 2842.77 1334.39 2841.22 1334.92 2839.15 1335.33 2836.57 1335.6 2834 1335.87 2830.72 1336 2826.75 1336 2822.78 1336 2819.5 1335.87 2816.92 1335.6 2814.35 1335.33 2812.28 1334.92 2810.72 1334.39 2809.16 1333.85 2808.06 1333.18 2807.42 1332.37 2806.78 1331.56 2806.45 1330.62 2806.45 1329.55L2806.45 1309.26 2806.74 1309.24C2808.94 1308.98 2810.71 1308.57 2812.06 1308.03 2813.4 1307.5 2814.34 1306.83 2814.88 1306.02 2815.41 1305.21 2815.68 1304.27 2815.68 1303.2L2815.68 1179.96 2816.92 1179.69C2819.5 1179.36 2822.78 1179.2 2826.75 1179.2ZM2698.74 1152.85C2702.72 1152.85 2705.99 1152.99 2708.57 1153.25 2711.15 1153.52 2713.21 1153.93 2714.77 1154.46 2716.33 1155 2717.43 1155.67 2718.07 1156.48 2718.72 1157.29 2719.04 1158.23 2719.04 1159.3L2719.04 1240.61C2719.04 1248.13 2719.52 1253.89 2720.49 1257.87 2721.45 1261.85 2722.93 1265.26 2724.92 1268.11 2726.9 1270.96 2729.43 1273.16 2732.49 1274.72 2735.55 1276.28 2739.12 1277.06 2743.2 1277.06 2748.35 1277.06 2753.53 1275.18 2758.74 1271.42 2763.95 1267.65 2769.51 1262.17 2775.41 1254.96L2775.41 1159.3C2775.41 1158.23 2775.71 1157.29 2776.3 1156.48 2776.89 1155.67 2777.96 1155 2779.52 1154.46 2781.08 1153.93 2783.14 1153.52 2785.72 1153.25 2788.3 1152.99 2791.57 1152.85 2795.55 1152.85 2799.52 1152.85 2802.8 1152.99 2805.37 1153.25L2808 1153.77 2808.14 1154.04 2812.53 1155.11 2814.71 1156.48C2815.36 1157.29 2815.68 1158.23 2815.68 1159.3L2815.68 1179.96 2810.72 1181.06C2809.16 1181.65 2808.06 1182.35 2807.42 1183.16 2806.78 1183.96 2806.45 1184.9 2806.45 1185.98L2806.45 1309.26 2798.45 1309.65C2794.9 1309.65 2792.03 1309.51 2789.83 1309.24 2787.63 1308.98 2785.88 1308.57 2784.59 1308.03 2783.31 1307.5 2782.39 1306.83 2781.86 1306.02 2781.32 1305.21 2781.05 1304.27 2781.05 1303.2L2781.05 1286.58C2773.1 1295.18 2765.02 1301.64 2756.81 1305.94 2748.59 1310.24 2740.08 1312.39 2731.28 1312.39 2721.4 1312.39 2713.11 1310.78 2706.39 1307.55 2699.68 1304.32 2694.26 1299.92 2690.13 1294.32 2685.99 1288.73 2683.04 1282.25 2681.27 1274.89 2679.5 1267.52 2678.61 1258.35 2678.61 1247.38L2678.61 1159.3C2678.61 1158.23 2678.9 1157.29 2679.5 1156.48 2680.09 1155.67 2681.16 1155 2682.72 1154.46 2684.27 1153.93 2686.37 1153.52 2689 1153.25 2691.63 1152.99 2694.88 1152.85 2698.74 1152.85ZM2840.11 1119.27 2845.27 1120.57 2847.63 1124.72 2843.05 1124.53 2838.98 1123.74 2840.04 1119.37ZM2826.91 1115.97 2832.58 1117.39 2832.58 1118.48C2832.58 1119.56 2832.91 1120.5 2833.55 1121.31 2834.19 1122.11 2835.29 1122.78 2836.85 1123.32L2838.98 1123.74 2838.83 1124.37C2838.56 1126.47 2838.43 1129.07 2838.43 1132.19 2838.43 1137.89 2839.04 1142.03 2840.28 1144.61 2841.51 1147.19 2843.15 1148.49 2845.19 1148.49L2848.18 1148.49 2845.11 1153.88C2841.78 1157 2835.61 1158.56 2826.59 1158.56L2812.53 1155.11 2811.49 1154.46 2808 1153.77 2804.58 1147.71C2803.79 1144.99 2803.39 1141.67 2803.39 1137.75 2803.39 1129.57 2805.03 1123.9 2808.31 1120.73 2811.58 1117.55 2817.78 1115.97 2826.91 1115.97ZM2873.17 1115.9 2926.65 1115.9 2926.65 1118.48C2926.65 1119.56 2926.97 1120.5 2927.61 1121.31 2928.26 1122.11 2929.36 1122.78 2930.92 1123.32 2932.47 1123.86 2934.54 1124.26 2937.12 1124.53L2941.41 1124.71 2941.67 1127.35 2941.67 1135.26C2941.67 1137.41 2941.57 1139.32 2941.35 1140.98 2941.14 1142.65 2940.81 1144.24 2940.38 1145.74 2939.95 1147.25 2939.34 1148.75 2938.53 1150.26 2937.73 1151.77 2936.79 1153.38 2935.71 1155.1L2882.24 1238.18 2938.93 1238.18C2939.9 1238.18 2940.81 1238.39 2941.67 1238.82 2942.53 1239.25 2943.26 1240.06 2943.85 1241.24 2944.44 1242.42 2944.89 1244.06 2945.22 1246.16 2945.54 1248.26 2945.7 1250.92 2945.7 1254.15 2945.7 1257.26 2945.54 1259.93 2945.22 1262.13 2944.89 1264.34 2944.46 1266.08 2943.93 1267.37 2943.39 1268.66 2942.69 1269.55 2941.83 1270.03 2940.97 1270.52 2940.01 1270.76 2938.93 1270.76L2847.04 1270.76 2847.04 1224.37 2896.09 1148.49 2848.18 1148.49 2848.85 1147.3C2849.69 1144.48 2850.1 1141.03 2850.1 1136.94 2850.1 1133.01 2849.7 1129.69 2848.9 1126.96L2847.63 1124.72 2852.88 1124.94C2856.85 1124.94 2860.13 1124.8 2862.7 1124.53 2865.28 1124.26 2867.35 1123.86 2868.91 1123.32 2870.46 1122.78 2871.56 1122.11 2872.21 1121.31 2872.85 1120.5 2873.17 1119.56 2873.17 1118.48ZM2595.44 1105.29C2590.18 1105.29 2585.64 1106.6 2581.83 1109.24 2578.02 1111.87 2574.96 1115.39 2572.65 1119.8 2570.34 1124.21 2568.62 1129.13 2567.5 1134.56 2566.37 1139.99 2565.8 1145.56 2565.8 1151.26 2565.8 1157.28 2566.29 1163.17 2567.25 1168.92 2568.22 1174.68 2569.8 1179.76 2572 1184.17 2574.21 1188.58 2577.13 1192.13 2580.78 1194.81 2584.43 1197.5 2589.05 1198.85 2594.64 1198.85 2597.43 1198.85 2600.14 1198.44 2602.77 1197.64 2605.4 1196.83 2608.08 1195.51 2610.82 1193.69 2613.56 1191.86 2616.38 1189.46 2619.28 1186.51 2622.18 1183.55 2625.35 1179.92 2628.78 1175.62L2628.78 1127.87C2622.98 1120.56 2617.43 1114.96 2612.11 1111.09 2606.8 1107.22 2601.24 1105.29 2595.44 1105.29ZM3064.2 1082.17 3104.24 1082.17 3106.03 1095.93C3107.48 1100.93 3109.79 1105.18 3112.96 1108.68 3116.12 1112.17 3120.21 1114.83 3125.2 1116.66 3130.19 1118.49 3136.18 1119.4 3143.16 1119.4 3150.25 1119.4 3156.47 1118.89 3161.84 1117.87 3167.21 1116.85 3171.86 1115.72 3175.77 1114.48 3179.69 1113.25 3182.94 1112.12 3185.52 1111.1 3188.1 1110.07 3190.19 1109.56 3191.8 1109.56 3192.77 1109.56 3193.57 1109.75 3194.22 1110.13 3194.86 1110.5 3195.4 1111.18 3195.83 1112.14 3196.26 1113.11 3196.55 1114.48 3196.71 1116.26 3196.88 1118.03 3196.96 1120.26 3196.96 1122.95 3196.96 1125.32 3196.9 1127.33 3196.79 1129 3196.69 1130.67 3196.53 1132.09 3196.31 1133.28 3196.1 1134.46 3195.77 1135.45 3195.34 1136.26 3194.92 1137.07 3194.35 1137.85 3193.65 1138.6 3192.96 1139.35 3191.05 1140.37 3187.94 1141.66 3184.82 1142.96 3180.85 1144.22 3176.02 1145.46 3171.18 1146.69 3165.65 1147.77 3159.43 1148.68 3153.2 1149.6 3146.54 1150.05 3139.45 1150.05 3126.68 1150.05 3115.48 1148.44 3105.87 1145.21 3096.26 1141.99 3088.23 1137.09 3081.79 1130.53 3075.35 1123.97 3070.54 1115.69 3067.37 1105.69ZM3020.71 1082.17 3061.14 1082.17 3061.14 1118.48C3061.14 1119.56 3060.82 1120.5 3060.18 1121.31 3059.53 1122.11 3058.46 1122.78 3056.96 1123.32 3055.45 1123.86 3053.41 1124.26 3050.83 1124.53 3048.26 1124.8 3044.98 1124.94 3041.01 1124.94 3036.93 1124.94 3033.6 1124.8 3031.02 1124.53 3028.45 1124.26 3026.38 1123.86 3024.82 1123.32 3023.26 1122.78 3022.19 1122.11 3021.6 1121.31 3021.01 1120.5 3020.71 1119.56 3020.71 1118.48ZM2926.65 1082.17 2967.08 1082.17 2967.08 1118.48C2967.08 1119.56 2966.76 1120.5 2966.11 1121.31 2965.47 1122.11 2964.37 1122.78 2962.81 1123.32 2961.25 1123.86 2959.19 1124.26 2956.61 1124.53 2954.03 1124.8 2950.81 1124.94 2946.94 1124.94L2941.41 1124.71 2941.11 1121.71C2940.73 1120.2 2940.2 1119.02 2939.5 1118.16 2938.8 1117.3 2937.91 1116.71 2936.84 1116.38 2935.77 1116.06 2934.48 1115.9 2932.97 1115.9L2926.65 1115.9ZM2837.08 1082.17 2873.17 1082.17 2873.17 1115.9 2845.19 1115.9C2844.01 1115.9 2842.99 1116.17 2842.13 1116.71L2840.11 1119.27 2832.58 1117.39 2832.58 1089.68 2832.81 1089.64C2834.37 1089.1 2835.47 1088.43 2836.11 1087.62 2836.76 1086.82 2837.08 1085.88 2837.08 1084.8ZM2796.49 1082.17 2832.58 1082.17 2832.58 1089.68 2826.61 1090.85C2824.03 1091.12 2820.76 1091.25 2816.79 1091.25 2812.81 1091.25 2809.54 1091.12 2806.96 1090.85 2804.38 1090.58 2802.32 1090.18 2800.76 1089.64 2799.2 1089.1 2798.1 1088.43 2797.46 1087.62 2796.81 1086.82 2796.49 1085.88 2796.49 1084.8ZM2708.73 1082.17 2747.52 1082.17 2744.83 1083.65C2742.84 1084.24 2740.83 1084.54 2738.79 1084.54L2720.75 1084.54C2716.99 1084.54 2713.74 1084.16 2711 1083.41ZM2571.33 1082.17 2585.04 1082.17 2586.57 1083.33C2587.97 1083.92 2589.9 1084.38 2592.37 1084.7 2594.84 1085.02 2597.96 1085.19 2601.71 1085.19 2605.58 1085.19 2608.75 1085.02 2611.22 1084.7 2613.69 1084.38 2615.65 1083.92 2617.1 1083.33L2618.72 1082.17 2618.99 1082.17 2621.78 1084.07C2625.7 1087.24 2630.02 1091.14 2634.74 1095.77L2634.74 1082.17 2669.05 1082.17 2669.05 1281.12C2669.05 1282.19 2668.73 1283.16 2668.08 1284.02 2667.44 1284.88 2666.37 1285.61 2664.86 1286.2 2663.36 1286.79 2661.32 1287.25 2658.74 1287.57 2656.16 1287.89 2652.89 1288.05 2648.92 1288.05 2644.94 1288.05 2641.67 1287.89 2639.09 1287.57 2636.51 1287.25 2634.45 1286.79 2632.89 1286.2 2631.33 1285.61 2630.26 1284.88 2629.67 1284.02 2629.08 1283.16 2628.78 1282.19 2628.78 1281.12L2628.78 1212.72C2624.92 1216.27 2621.16 1219.36 2617.51 1222 2613.86 1224.63 2610.21 1226.78 2606.55 1228.45 2602.9 1230.12 2599.15 1231.32 2595.28 1232.08 2591.41 1232.83 2587.33 1233.21 2583.04 1233.21 2572.52 1233.21 2563.55 1231.08 2556.14 1226.83 2548.73 1222.59 2542.69 1216.86 2538.02 1209.66 2533.35 1202.45 2529.94 1194.03 2527.79 1184.41 2525.64 1174.78 2524.57 1164.65 2524.57 1154 2524.57 1141.2 2525.97 1129.7 2528.76 1119.48 2531.55 1109.26 2535.63 1100.55 2541 1093.35L2551 1084.96 2555.77 1085.19C2559.1 1085.19 2561.86 1085.05 2564.06 1084.78 2566.26 1084.51 2568.04 1084.11 2569.38 1083.57ZM2540.02 1082.17 2554.32 1082.17 2551 1084.96 2547.15 1084.78C2544.95 1084.51 2543.2 1084.11 2541.92 1083.57ZM2462.59 1082.17 2512.32 1082.17 2501.59 1086.31C2497.33 1087.39 2493 1087.93 2488.6 1087.93 2478.72 1087.93 2470.43 1086.31 2463.72 1083.09ZM2573 1072.55 2573 1078.73C2573 1079.81 2572.73 1080.75 2572.2 1081.56L2571.33 1082.17 2554.32 1082.17 2560.81 1076.73ZM2588.03 1070.93C2592 1070.93 2595.82 1071.33 2599.47 1072.14 2603.12 1072.94 2606.77 1074.34 2610.42 1076.33L2618.85 1082.08 2618.72 1082.17 2585.04 1082.17 2583.67 1081.15C2583.14 1080.29 2582.87 1079.32 2582.87 1078.25L2582.87 1071.44ZM2538.37 1062.12 2538.37 1078.73C2538.37 1079.81 2538.64 1080.75 2539.18 1081.56L2540.02 1082.17 2512.32 1082.17 2514.13 1081.48C2522.34 1077.17 2530.43 1070.72 2538.37 1062.12ZM3134.94 1016.49C3145.14 1016.49 3152.69 1019.74 3157.57 1026.25 3162.46 1032.75 3164.74 1041.7 3164.42 1053.1L3103.86 1053.1C3104.07 1048.05 3104.85 1043.29 3106.19 1038.83 3107.53 1034.36 3109.47 1030.49 3111.99 1027.21 3114.51 1023.93 3117.68 1021.33 3121.49 1019.39 3125.31 1017.45 3129.79 1016.49 3134.94 1016.49ZM2997.84 1000.72C3001.81 1000.72 3005.22 1001.5 3008.07 1003.06 3010.92 1004.62 3013.28 1006.83 3015.16 1009.68 3017.04 1012.53 3018.43 1015.94 3019.34 1019.92 3020.26 1023.9 3020.71 1028.31 3020.71 1033.15L3020.71 1082.17 2967.08 1082.17 2967.08 1022.82C2972.88 1015.62 2978.25 1010.13 2983.18 1006.37 2988.12 1002.61 2993.01 1000.72 2997.84 1000.72ZM2903.94 1000.72C2907.8 1000.72 2911.19 1001.5 2914.08 1003.06 2916.98 1004.62 2919.35 1006.83 2921.17 1009.68 2923 1012.53 2924.37 1015.94 2925.28 1019.92 2926.19 1023.9 2926.65 1028.31 2926.65 1033.15L2926.65 1082.17 2873.17 1082.17 2873.17 1022.82C2878.86 1015.62 2884.18 1010.13 2889.12 1006.37 2894.06 1002.61 2899 1000.72 2903.94 1000.72ZM2837.08 969.574 2837.08 1082.17 2832.58 1082.17 2832.58 974.591C2832.58 973.516 2832.85 972.575 2833.39 971.768 2833.93 970.962 2834.89 970.289 2836.29 969.752ZM2816.79 934.456C2820.76 934.456 2824.03 934.618 2826.61 934.94L2828.54 935.367 2828.54 968.933C2828.54 970.008 2828.19 970.976 2827.49 971.836 2826.79 972.697 2825.64 973.395 2824.03 973.933 2822.42 974.471 2820.24 974.901 2817.51 975.224 2814.77 975.547 2811.36 975.708 2807.28 975.708 2803.2 975.708 2799.79 975.547 2797.05 975.224L2796.49 975.113 2796.49 941.232C2796.49 940.156 2796.81 939.215 2797.46 938.408 2798.1 937.602 2799.2 936.903 2800.76 936.311 2802.32 935.72 2804.38 935.263 2806.96 934.94 2809.54 934.618 2812.81 934.456 2816.79 934.456ZM2456.06 928.389 2463.79 928.706 2463.54 929.744C2462.95 931.142 2462.28 932.137 2461.52 932.728 2460.77 933.32 2459.91 933.615 2458.95 933.615L2436.32 933.615 2436.82 932.018C2437.41 931.212 2438.48 930.54 2440.04 930.002 2441.59 929.464 2443.69 929.061 2446.32 928.792 2448.95 928.523 2452.2 928.389 2456.06 928.389ZM2619.75 922.097 2620.08 922.097C2622.55 928.442 2625.34 934.976 2628.45 941.697 2631.57 948.419 2634.63 954.683 2637.63 960.49L2689.5 1058.08C2692.18 1063.46 2694.6 1067.84 2696.75 1071.23 2698.89 1074.62 2701.12 1077.31 2703.43 1079.3L2708.73 1082.17 2669.05 1082.17 2669.05 1080.12C2669.05 1079.04 2668.78 1078.1 2668.24 1077.3 2667.71 1076.49 2666.8 1075.82 2665.51 1075.28 2664.22 1074.74 2662.47 1074.34 2660.27 1074.07 2658.07 1073.8 2655.36 1073.67 2652.14 1073.67 2648.7 1073.67 2645.91 1073.8 2643.76 1074.07 2641.61 1074.34 2639.87 1074.74 2638.53 1075.28 2637.19 1075.82 2636.22 1076.49 2635.63 1077.3 2635.04 1078.1 2634.74 1079.04 2634.74 1080.12L2634.74 1082.17 2618.99 1082.17 2618.85 1082.08 2620.16 1081.15C2620.75 1080.29 2621.04 1079.32 2621.04 1078.25L2621.04 969.04C2621.04 960.866 2620.94 952.935 2620.72 945.246 2620.51 937.556 2620.18 929.841 2619.75 922.097ZM2816.95 871.221 2828.54 874.124 2828.54 910.799 2816.62 913.808C2807.5 913.808 2801.35 912.302 2798.18 909.292 2795.01 906.28 2793.43 900.849 2793.43 892.999 2793.43 884.826 2795.07 879.153 2798.34 875.98 2801.62 872.808 2807.82 871.221 2816.95 871.221ZM2828.54 865.337 3282 865.337 3282 1082.17 3104.24 1082.17 3103.86 1079.24 3191.32 1079.24C3195.18 1079.24 3198.22 1078.05 3200.42 1075.69 3202.62 1073.32 3203.72 1069.67 3203.72 1064.72L3203.72 1058.27C3203.72 1048.16 3202.43 1038.8 3199.86 1030.2 3197.28 1021.59 3193.25 1014.15 3187.77 1007.86 3182.3 1001.56 3175.29 996.644 3166.75 993.095 3158.22 989.546 3147.94 987.772 3135.91 987.772 3124.53 987.772 3114.3 989.654 3105.23 993.418 3096.15 997.182 3088.45 1002.64 3082.11 1009.79 3075.78 1016.94 3070.94 1025.65 3067.62 1035.92 3064.29 1046.19 3062.62 1057.73 3062.62 1070.53L3064.2 1082.17 3061.14 1082.17 3061.14 1026.37C3061.14 1018.09 3060.28 1010.24 3058.57 1002.82 3056.85 995.401 3053.98 988.921 3049.95 983.383 3045.92 977.844 3040.63 973.462 3034.08 970.236 3027.53 967.009 3019.48 965.396 3009.92 965.396 3005.73 965.396 3001.63 965.907 2997.6 966.929 2993.57 967.95 2989.55 969.51 2985.52 971.607 2981.49 973.704 2977.41 976.419 2973.28 979.753 2969.14 983.087 2964.93 987.066 2960.63 991.69 2958.81 987.711 2956.55 984.109 2953.87 980.882 2951.19 977.656 2947.99 974.887 2944.29 972.575 2940.58 970.263 2936.37 968.488 2931.64 967.251 2926.92 966.015 2921.6 965.396 2915.7 965.396 2907.11 965.396 2898.86 967.547 2890.97 971.849 2883.08 976.151 2875.16 982.603 2867.21 991.207L2867.21 974.591C2867.21 973.516 2866.95 972.575 2866.41 971.768 2865.87 970.962 2864.99 970.289 2863.75 969.752 2862.52 969.214 2860.77 968.811 2858.52 968.542 2856.26 968.273 2853.42 968.138 2849.98 968.138 2846.65 968.138 2843.89 968.273 2841.68 968.542L2837.08 969.574 2837.08 941.232C2837.08 940.156 2836.76 939.215 2836.11 938.408 2835.47 937.602 2834.37 936.903 2832.81 936.311L2828.54 935.367 2828.54 910.799 2835.15 909.13C2838.48 906.011 2840.14 900.365 2840.14 892.192 2840.14 884.341 2838.53 878.884 2835.31 875.819L2828.54 874.124ZM2395 865.337 2786.02 865.337 2786.02 968.933C2786.02 970.008 2786.37 970.976 2787.06 971.836 2787.76 972.697 2788.92 973.395 2790.53 973.933L2796.49 975.113 2796.49 1082.17 2747.52 1082.17 2749.98 1080.83C2751.43 1079.54 2752.58 1077.93 2753.44 1075.99 2754.3 1074.05 2754.73 1071.85 2754.73 1069.38L2754.73 881.769C2754.73 880.694 2754.46 879.726 2753.93 878.866 2753.39 878.005 2752.45 877.252 2751.11 876.607 2749.77 875.962 2747.86 875.505 2745.39 875.236 2742.92 874.967 2739.86 874.832 2736.21 874.832 2732.34 874.832 2729.18 874.967 2726.71 875.236 2724.24 875.505 2722.25 875.962 2720.75 876.607 2719.24 877.252 2718.17 878.005 2717.52 878.866 2716.88 879.726 2716.56 880.694 2716.56 881.769L2716.56 979.686C2716.56 987.107 2716.64 994.904 2716.8 1003.08 2716.96 1011.25 2717.2 1019.1 2717.52 1026.63L2717.36 1026.63C2715.43 1022.33 2713.44 1018.03 2711.4 1013.72 2709.36 1009.42 2707.27 1005.04 2705.12 1000.58 2702.97 996.113 2700.75 991.651 2698.44 987.188 2696.13 982.724 2693.79 978.181 2691.43 973.557L2650.84 897.255C2648.8 893.061 2646.81 889.539 2644.88 886.689 2642.95 883.839 2640.88 881.608 2638.68 879.995 2636.48 878.381 2633.98 877.225 2631.19 876.526 2628.4 875.827 2624.96 875.478 2620.88 875.478L2598.17 875.478C2593.88 875.478 2590.25 876.741 2587.3 879.269 2584.35 881.796 2582.87 885.587 2582.87 890.641L2582.87 1071.44 2573.49 1072.38 2573 1072.55 2573 934.842C2573 933.766 2572.68 932.825 2572.04 932.018 2571.39 931.212 2570.32 930.54 2568.81 930.002 2567.31 929.464 2565.27 929.061 2562.69 928.792 2560.12 928.523 2556.84 928.389 2552.87 928.389 2548.89 928.389 2545.62 928.523 2543.04 928.792 2540.47 929.061 2538.4 929.464 2536.84 930.002 2535.28 930.54 2534.21 931.212 2533.62 932.018 2533.03 932.825 2532.73 933.766 2532.73 934.842L2532.73 1030.5C2526.83 1037.71 2521.27 1043.19 2516.06 1046.95 2510.85 1050.72 2505.67 1052.6 2500.52 1052.6 2496.44 1052.6 2492.87 1051.82 2489.81 1050.26 2486.75 1048.7 2484.23 1046.5 2482.24 1043.65 2480.25 1040.8 2478.78 1037.38 2477.81 1033.4 2476.84 1029.43 2476.36 1023.67 2476.36 1016.14L2476.36 934.842C2476.36 933.766 2476.04 932.825 2475.39 932.018 2474.75 931.212 2473.65 930.54 2472.09 930.002 2470.53 929.464 2468.47 929.061 2465.89 928.792L2463.79 928.706 2464.83 924.421C2465.09 922.27 2465.23 919.581 2465.23 916.355 2465.23 913.129 2465.09 910.44 2464.83 908.289 2464.56 906.138 2464.13 904.418 2463.54 903.127 2462.95 901.837 2462.28 900.923 2461.52 900.385 2460.77 899.847 2459.91 899.578 2458.95 899.578L2395 899.578ZM2244 865.337 2352.48 865.337 2352.48 1011.37C2352.48 1012.55 2352.83 1013.57 2353.53 1014.43 2354.22 1015.29 2355.38 1016.02 2356.99 1016.61 2358.6 1017.2 2360.77 1017.66 2363.51 1017.98 2366.25 1018.31 2369.66 1018.47 2373.74 1018.47 2377.93 1018.47 2381.36 1018.31 2384.05 1017.98 2386.73 1017.66 2388.91 1017.2 2390.57 1016.61 2392.24 1016.02 2393.39 1015.29 2394.04 1014.43 2394.68 1013.57 2395 1012.55 2395 1011.37L2395 933.615 2436.32 933.615 2435.93 934.842 2435.93 1022.92C2435.93 1033.89 2436.82 1043.06 2438.59 1050.42 2440.36 1057.79 2443.31 1064.27 2447.45 1069.86L2462.59 1082.17 2244 1082.17ZM2365.04 808.759 2463.13 808.759C2464.1 808.759 2464.96 809.055 2465.71 809.646 2466.46 810.237 2467.13 811.205 2467.72 812.549 2468.32 813.894 2468.75 815.695 2469.01 817.954 2469.28 820.212 2469.42 822.954 2469.42 826.18 2469.42 829.407 2469.28 832.122 2469.01 834.327 2468.75 836.532 2468.32 838.279 2467.72 839.57 2467.13 840.86 2466.46 841.828 2465.71 842.473 2464.96 843.118 2464.1 843.441 2463.13 843.441L2395 843.441 2395 865.337 2352.48 865.337 2352.48 822.148C2352.48 817.416 2353.69 814.001 2356.1 811.904 2358.52 809.807 2361.5 808.759 2365.04 808.759ZM2733.83 766 2880.73 766C2881.69 766 2882.58 766.296 2883.38 766.887 2884.19 767.479 2884.86 768.447 2885.4 769.791 2885.93 771.135 2886.34 772.936 2886.61 775.195 2886.87 777.453 2887.01 780.196 2887.01 783.422 2887.01 786.54 2886.87 789.202 2886.61 791.407 2886.34 793.611 2885.93 795.386 2885.4 796.73 2884.86 798.074 2884.19 799.069 2883.38 799.714 2882.58 800.36 2881.69 800.682 2880.73 800.682L2828.54 800.682 2828.54 865.337 2786.02 865.337 2786.02 800.682 2733.83 800.682C2732.76 800.682 2731.84 800.36 2731.09 799.714 2730.34 799.069 2729.7 798.074 2729.16 796.73 2728.62 795.386 2728.22 793.611 2727.95 791.407 2727.68 789.202 2727.55 786.54 2727.55 783.422 2727.55 780.196 2727.68 777.453 2727.95 775.195 2728.22 772.936 2728.62 771.135 2729.16 769.791 2729.7 768.447 2730.34 767.479 2731.09 766.887 2731.84 766.296 2732.76 766 2733.83 766Z" stroke="#70AD47" stroke-width="2.29167" stroke-miterlimit="8" fill="url(#fill1)" fill-rule="evenodd"/></g></svg>