<svg width="1045" height="576" xmlns="http://www.w3.org/2000/svg" xmlns:xlink="http://www.w3.org/1999/xlink" xml:space="preserve" overflow="hidden"><defs><clipPath id="clip0"><rect x="2291" y="923" width="1045" height="576"/></clipPath></defs><g clip-path="url(#clip0)" transform="translate(-2291 -923)"><path d="M2877.25 1338.98C2881.22 1338.98 2884.5 1339.14 2887.07 1339.46 2889.65 1339.78 2891.72 1340.24 2893.27 1340.83 2894.83 1341.42 2895.93 1342.12 2896.58 1342.92 2897.22 1343.73 2897.54 1344.67 2897.54 1345.74L2897.54 1384.07 2892.79 1391.41C2891.5 1393.23 2890.46 1394.89 2889.65 1396.4 2888.85 1397.9 2888.2 1399.38 2887.72 1400.83 2887.24 1402.28 2886.91 1403.78 2886.75 1405.33 2886.59 1406.89 2886.51 1408.64 2886.51 1410.57L2886.51 1417.98C2886.51 1422.38 2887.29 1425.54 2888.85 1427.48 2890.4 1429.41 2892.63 1430.38 2895.53 1430.38L2897.54 1430.38 2897.54 1489.06C2897.54 1490.13 2897.22 1491.07 2896.58 1491.88 2895.93 1492.68 2894.83 1493.35 2893.27 1493.89 2891.72 1494.43 2889.65 1494.83 2887.07 1495.1 2884.5 1495.37 2881.22 1495.5 2877.25 1495.5 2873.28 1495.5 2870 1495.37 2867.42 1495.1 2864.85 1494.83 2862.78 1494.43 2861.22 1493.89 2859.66 1493.35 2858.56 1492.68 2857.92 1491.88 2857.28 1491.07 2856.95 1490.13 2856.95 1489.06L2856.95 1468.81 2857.24 1468.79C2859.44 1468.52 2861.21 1468.12 2862.56 1467.58 2863.9 1467.05 2864.84 1466.38 2865.38 1465.57 2865.91 1464.77 2866.18 1463.83 2866.18 1462.75L2866.18 1339.74 2867.42 1339.46C2870 1339.14 2873.28 1338.98 2877.25 1338.98ZM2749.24 1312.67C2753.22 1312.67 2756.49 1312.81 2759.07 1313.07 2761.65 1313.34 2763.71 1313.75 2765.27 1314.28 2766.83 1314.82 2767.93 1315.49 2768.57 1316.3 2769.22 1317.1 2769.54 1318.04 2769.54 1319.11L2769.54 1400.27C2769.54 1407.79 2770.02 1413.53 2770.99 1417.5 2771.95 1421.48 2773.43 1424.88 2775.42 1427.73 2777.4 1430.57 2779.93 1432.77 2782.99 1434.33 2786.05 1435.89 2789.62 1436.67 2793.7 1436.67 2798.85 1436.67 2804.03 1434.79 2809.24 1431.03 2814.45 1427.27 2820.01 1421.8 2825.91 1414.6L2825.91 1319.11C2825.91 1318.04 2826.21 1317.1 2826.8 1316.3 2827.39 1315.49 2828.46 1314.82 2830.02 1314.28 2831.58 1313.75 2833.64 1313.34 2836.22 1313.07 2838.8 1312.81 2842.07 1312.67 2846.05 1312.67 2850.02 1312.67 2853.3 1312.81 2855.87 1313.07L2858.5 1313.59 2858.64 1313.86 2863.03 1314.93 2865.21 1316.3C2865.86 1317.1 2866.18 1318.04 2866.18 1319.11L2866.18 1339.74 2861.22 1340.83C2859.66 1341.42 2858.56 1342.12 2857.92 1342.92 2857.28 1343.73 2856.95 1344.67 2856.95 1345.74L2856.95 1468.81 2848.95 1469.19C2845.4 1469.19 2842.53 1469.06 2840.33 1468.79 2838.13 1468.52 2836.38 1468.12 2835.09 1467.58 2833.81 1467.05 2832.89 1466.38 2832.36 1465.57 2831.82 1464.77 2831.55 1463.83 2831.55 1462.75L2831.55 1446.17C2823.6 1454.75 2815.52 1461.2 2807.31 1465.49 2799.09 1469.78 2790.58 1471.93 2781.78 1471.93 2771.9 1471.93 2763.61 1470.32 2756.89 1467.1 2750.18 1463.88 2744.76 1459.48 2740.63 1453.9 2736.49 1448.31 2733.54 1441.85 2731.77 1434.49 2730 1427.14 2729.11 1417.99 2729.11 1407.04L2729.11 1319.11C2729.11 1318.04 2729.4 1317.1 2730 1316.3 2730.59 1315.49 2731.66 1314.82 2733.22 1314.28 2734.77 1313.75 2736.87 1313.34 2739.5 1313.07 2742.13 1312.81 2745.38 1312.67 2749.24 1312.67ZM2890.61 1279.15 2895.77 1280.44 2898.13 1284.59 2893.55 1284.4 2889.48 1283.61 2890.54 1279.25ZM2877.41 1275.85 2883.08 1277.27 2883.08 1278.36C2883.08 1279.44 2883.41 1280.38 2884.05 1281.18 2884.69 1281.99 2885.79 1282.66 2887.35 1283.2L2889.48 1283.61 2889.33 1284.24C2889.06 1286.33 2888.93 1288.94 2888.93 1292.05 2888.93 1297.74 2889.54 1301.87 2890.78 1304.45 2892.01 1307.03 2893.65 1308.31 2895.69 1308.31L2898.68 1308.31 2895.61 1313.7C2892.28 1316.81 2886.11 1318.37 2877.09 1318.37L2863.03 1314.93 2861.99 1314.28 2858.5 1313.59 2855.08 1307.54C2854.29 1304.83 2853.89 1301.51 2853.89 1297.59 2853.89 1289.43 2855.53 1283.77 2858.81 1280.6 2862.08 1277.44 2868.28 1275.85 2877.41 1275.85ZM2923.67 1275.79 2977.15 1275.79 2977.15 1278.36C2977.15 1279.44 2977.47 1280.38 2978.11 1281.18 2978.76 1281.99 2979.86 1282.66 2981.42 1283.2 2982.97 1283.73 2985.04 1284.13 2987.62 1284.4L2991.91 1284.58 2992.17 1287.22 2992.17 1295.11C2992.17 1297.26 2992.07 1299.16 2991.85 1300.83 2991.64 1302.49 2991.31 1304.07 2990.88 1305.58 2990.45 1307.08 2989.84 1308.58 2989.03 1310.09 2988.23 1311.59 2987.29 1313.2 2986.21 1314.92L2932.74 1397.85 2989.43 1397.85C2990.4 1397.85 2991.31 1398.06 2992.17 1398.49 2993.03 1398.92 2993.76 1399.73 2994.35 1400.91 2994.94 1402.09 2995.39 1403.72 2995.72 1405.82 2996.04 1407.91 2996.2 1410.57 2996.2 1413.79 2996.2 1416.9 2996.04 1419.56 2995.72 1421.76 2995.39 1423.96 2994.96 1425.71 2994.43 1426.99 2993.89 1428.28 2993.19 1429.17 2992.33 1429.65 2991.47 1430.13 2990.51 1430.38 2989.43 1430.38L2897.54 1430.38 2897.54 1384.07 2946.59 1308.31 2898.68 1308.31 2899.35 1307.13C2900.19 1304.32 2900.6 1300.87 2900.6 1296.79 2900.6 1292.87 2900.2 1289.55 2899.4 1286.82L2898.13 1284.59 2903.38 1284.81C2907.35 1284.81 2910.63 1284.67 2913.2 1284.4 2915.78 1284.13 2917.85 1283.73 2919.41 1283.2 2920.96 1282.66 2922.06 1281.99 2922.71 1281.18 2923.35 1280.38 2923.67 1279.44 2923.67 1278.36ZM2645.94 1265.19C2640.68 1265.19 2636.14 1266.5 2632.33 1269.14 2628.52 1271.77 2625.46 1275.28 2623.15 1279.68 2620.84 1284.08 2619.12 1289 2618 1294.42 2616.87 1299.84 2616.3 1305.39 2616.3 1311.08 2616.3 1317.1 2616.79 1322.97 2617.75 1328.72 2618.72 1334.46 2620.3 1339.53 2622.5 1343.93 2624.71 1348.34 2627.63 1351.88 2631.28 1354.56 2634.93 1357.25 2639.55 1358.59 2645.14 1358.59 2647.93 1358.59 2650.64 1358.19 2653.27 1357.38 2655.9 1356.57 2658.58 1355.26 2661.32 1353.43 2664.06 1351.61 2666.88 1349.22 2669.78 1346.27 2672.68 1343.32 2675.85 1339.69 2679.28 1335.4L2679.28 1287.73C2673.48 1280.43 2667.93 1274.85 2662.61 1270.99 2657.3 1267.12 2651.74 1265.19 2645.94 1265.19ZM3114.7 1242.12 3154.74 1242.12 3156.53 1255.85C3157.98 1260.85 3160.29 1265.09 3163.46 1268.58 3166.62 1272.06 3170.71 1274.72 3175.7 1276.55 3180.69 1278.37 3186.68 1279.28 3193.66 1279.28 3200.75 1279.28 3206.97 1278.77 3212.34 1277.75 3217.71 1276.73 3222.36 1275.61 3226.27 1274.37 3230.19 1273.14 3233.44 1272.01 3236.02 1270.99 3238.6 1269.97 3240.69 1269.46 3242.3 1269.46 3243.27 1269.46 3244.07 1269.65 3244.72 1270.02 3245.36 1270.4 3245.9 1271.07 3246.33 1272.04 3246.76 1273 3247.05 1274.37 3247.21 1276.14 3247.38 1277.91 3247.46 1280.14 3247.46 1282.83 3247.46 1285.19 3247.4 1287.2 3247.29 1288.86 3247.19 1290.53 3247.03 1291.95 3246.81 1293.13 3246.6 1294.31 3246.27 1295.31 3245.84 1296.11 3245.42 1296.92 3244.85 1297.69 3244.15 1298.45 3243.46 1299.2 3241.55 1300.22 3238.44 1301.51 3235.32 1302.79 3231.35 1304.06 3226.52 1305.29 3221.68 1306.52 3216.15 1307.6 3209.93 1308.51 3203.7 1309.42 3197.04 1309.88 3189.95 1309.88 3177.18 1309.88 3165.98 1308.27 3156.37 1305.05 3146.76 1301.83 3138.73 1296.94 3132.29 1290.39 3125.85 1283.85 3121.04 1275.58 3117.87 1265.6ZM3071.21 1242.12 3111.64 1242.12 3111.64 1278.36C3111.64 1279.44 3111.32 1280.38 3110.68 1281.18 3110.03 1281.99 3108.96 1282.66 3107.46 1283.2 3105.95 1283.73 3103.91 1284.13 3101.33 1284.4 3098.76 1284.67 3095.48 1284.81 3091.51 1284.81 3087.43 1284.81 3084.1 1284.67 3081.52 1284.4 3078.95 1284.13 3076.88 1283.73 3075.32 1283.2 3073.76 1282.66 3072.69 1281.99 3072.1 1281.18 3071.51 1280.38 3071.21 1279.44 3071.21 1278.36ZM2977.15 1242.12 3017.58 1242.12 3017.58 1278.36C3017.58 1279.44 3017.26 1280.38 3016.61 1281.18 3015.97 1281.99 3014.87 1282.66 3013.31 1283.2 3011.75 1283.73 3009.69 1284.13 3007.11 1284.4 3004.53 1284.67 3001.31 1284.81 2997.44 1284.81L2991.91 1284.58 2991.61 1281.58C2991.23 1280.08 2990.7 1278.9 2990 1278.04 2989.3 1277.18 2988.41 1276.59 2987.34 1276.27 2986.27 1275.95 2984.98 1275.79 2983.47 1275.79L2977.15 1275.79ZM2887.58 1242.12 2923.67 1242.12 2923.67 1275.79 2895.69 1275.79C2894.51 1275.79 2893.49 1276.05 2892.63 1276.59L2890.61 1279.15 2883.08 1277.27 2883.08 1249.62 2883.31 1249.57C2884.87 1249.04 2885.97 1248.36 2886.61 1247.56 2887.26 1246.75 2887.58 1245.81 2887.58 1244.74ZM2846.99 1242.12 2883.08 1242.12 2883.08 1249.62 2877.11 1250.78C2874.53 1251.05 2871.26 1251.18 2867.29 1251.18 2863.31 1251.18 2860.04 1251.05 2857.46 1250.78 2854.88 1250.51 2852.82 1250.11 2851.26 1249.57 2849.7 1249.04 2848.6 1248.36 2847.96 1247.56 2847.31 1246.75 2846.99 1245.81 2846.99 1244.74ZM2759.23 1242.12 2798.02 1242.12 2795.33 1243.6C2793.34 1244.19 2791.33 1244.48 2789.29 1244.48L2771.25 1244.48C2767.49 1244.48 2764.24 1244.11 2761.5 1243.35ZM2621.83 1242.12 2635.54 1242.12 2637.07 1243.27C2638.47 1243.86 2640.4 1244.32 2642.87 1244.64 2645.34 1244.96 2648.46 1245.13 2652.21 1245.13 2656.08 1245.13 2659.25 1244.96 2661.72 1244.64 2664.19 1244.32 2666.15 1243.86 2667.6 1243.27L2669.22 1242.12 2669.49 1242.12 2672.28 1244.01C2676.2 1247.18 2680.52 1251.07 2685.24 1255.69L2685.24 1242.12 2719.55 1242.12 2719.55 1440.71C2719.55 1441.79 2719.23 1442.75 2718.58 1443.61 2717.94 1444.47 2716.87 1445.2 2715.36 1445.79 2713.86 1446.38 2711.82 1446.83 2709.24 1447.15 2706.66 1447.48 2703.39 1447.64 2699.42 1447.64 2695.44 1447.64 2692.17 1447.48 2689.59 1447.15 2687.01 1446.83 2684.95 1446.38 2683.39 1445.79 2681.83 1445.2 2680.76 1444.47 2680.17 1443.61 2679.58 1442.75 2679.28 1441.79 2679.28 1440.71L2679.28 1372.44C2675.42 1375.98 2671.66 1379.07 2668.01 1381.7 2664.36 1384.33 2660.71 1386.47 2657.05 1388.14 2653.4 1389.8 2649.65 1391.01 2645.78 1391.76 2641.91 1392.51 2637.83 1392.89 2633.54 1392.89 2623.02 1392.89 2614.05 1390.77 2606.64 1386.53 2599.23 1382.29 2593.19 1376.57 2588.52 1369.38 2583.85 1362.18 2580.44 1353.78 2578.29 1344.18 2576.14 1334.57 2575.07 1324.45 2575.07 1313.82 2575.07 1301.05 2576.47 1289.56 2579.26 1279.36 2582.05 1269.16 2586.13 1260.47 2591.5 1253.27L2601.5 1244.9 2606.27 1245.13C2609.6 1245.13 2612.36 1244.99 2614.56 1244.72 2616.76 1244.45 2618.54 1244.05 2619.88 1243.52ZM2590.52 1242.12 2604.82 1242.12 2601.5 1244.9 2597.65 1244.72C2595.45 1244.45 2593.7 1244.05 2592.42 1243.52ZM2513.09 1242.12 2562.82 1242.12 2552.09 1246.25C2547.83 1247.33 2543.5 1247.86 2539.1 1247.86 2529.22 1247.86 2520.93 1246.25 2514.22 1243.03ZM2623.5 1232.51 2623.5 1238.68C2623.5 1239.76 2623.23 1240.7 2622.7 1241.5L2621.83 1242.12 2604.82 1242.12 2611.31 1236.69ZM2638.53 1230.89C2642.5 1230.89 2646.32 1231.29 2649.97 1232.1 2653.62 1232.9 2657.27 1234.3 2660.92 1236.28L2669.35 1242.03 2669.22 1242.12 2635.54 1242.12 2634.17 1241.1C2633.64 1240.24 2633.37 1239.27 2633.37 1238.2L2633.37 1231.41ZM2588.87 1222.1 2588.87 1238.68C2588.87 1239.76 2589.14 1240.7 2589.68 1241.5L2590.52 1242.12 2562.82 1242.12 2564.63 1241.42C2572.84 1237.13 2580.93 1230.69 2588.87 1222.1ZM3185.44 1176.55C3195.64 1176.55 3203.19 1179.79 3208.07 1186.29 3212.96 1192.78 3215.24 1201.72 3214.92 1213.1L3154.36 1213.1C3154.57 1208.05 3155.35 1203.3 3156.69 1198.85 3158.03 1194.39 3159.97 1190.53 3162.49 1187.25 3165.01 1183.98 3168.18 1181.38 3171.99 1179.44 3175.81 1177.51 3180.29 1176.55 3185.44 1176.55ZM3048.34 1160.81C3052.31 1160.81 3055.72 1161.59 3058.57 1163.15 3061.42 1164.7 3063.78 1166.9 3065.66 1169.75 3067.54 1172.59 3068.93 1176 3069.84 1179.97 3070.76 1183.95 3071.21 1188.35 3071.21 1193.18L3071.21 1242.12 3017.58 1242.12 3017.58 1182.87C3023.38 1175.68 3028.75 1170.21 3033.68 1166.45 3038.62 1162.69 3043.51 1160.81 3048.34 1160.81ZM2954.44 1160.81C2958.3 1160.81 2961.69 1161.59 2964.58 1163.15 2967.48 1164.7 2969.85 1166.9 2971.67 1169.75 2973.5 1172.59 2974.87 1176 2975.78 1179.97 2976.69 1183.95 2977.15 1188.35 2977.15 1193.18L2977.15 1242.12 2923.67 1242.12 2923.67 1182.87C2929.36 1175.68 2934.68 1170.21 2939.62 1166.45 2944.56 1162.69 2949.5 1160.81 2954.44 1160.81ZM2887.58 1129.72 2887.58 1242.12 2883.08 1242.12 2883.08 1134.73C2883.08 1133.65 2883.35 1132.71 2883.89 1131.91 2884.43 1131.1 2885.39 1130.43 2886.79 1129.89ZM2867.29 1094.66C2871.26 1094.66 2874.53 1094.82 2877.11 1095.14L2879.04 1095.57 2879.04 1129.08C2879.04 1130.15 2878.69 1131.12 2877.99 1131.97 2877.29 1132.83 2876.14 1133.53 2874.53 1134.07 2872.92 1134.61 2870.74 1135.03 2868.01 1135.36 2865.27 1135.68 2861.86 1135.84 2857.78 1135.84 2853.7 1135.84 2850.29 1135.68 2847.55 1135.36L2846.99 1135.25 2846.99 1101.42C2846.99 1100.35 2847.31 1099.41 2847.96 1098.61 2848.6 1097.8 2849.7 1097.1 2851.26 1096.51 2852.82 1095.92 2854.88 1095.47 2857.46 1095.14 2860.04 1094.82 2863.31 1094.66 2867.29 1094.66ZM2506.56 1088.6 2514.29 1088.92 2514.04 1089.96C2513.45 1091.35 2512.78 1092.35 2512.02 1092.94 2511.27 1093.53 2510.41 1093.82 2509.45 1093.82L2486.82 1093.82 2487.32 1092.23C2487.91 1091.42 2488.98 1090.75 2490.54 1090.21 2492.09 1089.68 2494.19 1089.28 2496.82 1089.01 2499.45 1088.74 2502.7 1088.6 2506.56 1088.6ZM2670.25 1082.32 2670.58 1082.32C2673.05 1088.66 2675.84 1095.18 2678.95 1101.89 2682.07 1108.6 2685.13 1114.85 2688.13 1120.65L2740 1218.07C2742.68 1223.44 2745.1 1227.81 2747.25 1231.2 2749.39 1234.58 2751.62 1237.26 2753.93 1239.25L2759.23 1242.12 2719.55 1242.12 2719.55 1240.07C2719.55 1239 2719.28 1238.06 2718.74 1237.25 2718.21 1236.45 2717.3 1235.77 2716.01 1235.24 2714.72 1234.7 2712.97 1234.3 2710.77 1234.03 2708.57 1233.76 2705.86 1233.63 2702.64 1233.63 2699.2 1233.63 2696.41 1233.76 2694.26 1234.03 2692.11 1234.3 2690.37 1234.7 2689.03 1235.24 2687.69 1235.77 2686.72 1236.45 2686.13 1237.25 2685.54 1238.06 2685.24 1239 2685.24 1240.07L2685.24 1242.12 2669.49 1242.12 2669.35 1242.03 2670.66 1241.1C2671.25 1240.24 2671.54 1239.27 2671.54 1238.2L2671.54 1129.18C2671.54 1121.02 2671.44 1113.11 2671.22 1105.43 2671.01 1097.76 2670.68 1090.05 2670.25 1082.32ZM2867.45 1031.54 2879.04 1034.43 2879.04 1071.04 2867.12 1074.05C2858 1074.05 2851.85 1072.55 2848.68 1069.54 2845.51 1066.53 2843.93 1061.11 2843.93 1053.28 2843.93 1045.12 2845.57 1039.45 2848.84 1036.29 2852.12 1033.12 2858.32 1031.54 2867.45 1031.54ZM2879.04 1025.66 3332.5 1025.66 3332.5 1242.12 3154.74 1242.12 3154.36 1239.19 3241.82 1239.19C3245.68 1239.19 3248.72 1238.01 3250.92 1235.64 3253.12 1233.28 3254.22 1229.63 3254.22 1224.69L3254.22 1218.25C3254.22 1208.16 3252.93 1198.82 3250.36 1190.23 3247.78 1181.65 3243.75 1174.21 3238.27 1167.93 3232.8 1161.65 3225.79 1156.74 3217.25 1153.2 3208.72 1149.65 3198.44 1147.88 3186.41 1147.88 3175.03 1147.88 3164.8 1149.76 3155.73 1153.52 3146.65 1157.28 3138.95 1162.72 3132.61 1169.86 3126.28 1177 3121.44 1185.7 3118.12 1195.95 3114.79 1206.2 3113.12 1217.72 3113.12 1230.49L3114.7 1242.12 3111.64 1242.12 3111.64 1186.42C3111.64 1178.15 3110.78 1170.31 3109.07 1162.91 3107.35 1155.5 3104.48 1149.03 3100.45 1143.5 3096.42 1137.97 3091.13 1133.6 3084.58 1130.38 3078.03 1127.16 3069.98 1125.55 3060.42 1125.55 3056.23 1125.55 3052.13 1126.06 3048.1 1127.08 3044.07 1128.1 3040.05 1129.65 3036.02 1131.75 3031.99 1133.84 3027.91 1136.55 3023.78 1139.88 3019.64 1143.21 3015.43 1147.18 3011.13 1151.79 3009.31 1147.82 3007.05 1144.23 3004.37 1141.01 3001.69 1137.78 2998.49 1135.02 2994.79 1132.71 2991.08 1130.4 2986.87 1128.63 2982.14 1127.4 2977.42 1126.16 2972.1 1125.55 2966.2 1125.55 2957.61 1125.55 2949.36 1127.69 2941.47 1131.99 2933.58 1136.28 2925.66 1142.72 2917.71 1151.31L2917.71 1134.73C2917.71 1133.65 2917.45 1132.71 2916.91 1131.91 2916.37 1131.1 2915.49 1130.43 2914.25 1129.89 2913.02 1129.36 2911.27 1128.96 2909.02 1128.69 2906.76 1128.42 2903.92 1128.28 2900.48 1128.28 2897.15 1128.28 2894.39 1128.42 2892.18 1128.69L2887.58 1129.72 2887.58 1101.42C2887.58 1100.35 2887.26 1099.41 2886.61 1098.61 2885.97 1097.8 2884.87 1097.1 2883.31 1096.51L2879.04 1095.57 2879.04 1071.04 2885.65 1069.38C2888.98 1066.27 2890.64 1060.63 2890.64 1052.47 2890.64 1044.63 2889.03 1039.19 2885.81 1036.13L2879.04 1034.43ZM2445.5 1025.66 2836.52 1025.66 2836.52 1129.08C2836.52 1130.15 2836.87 1131.12 2837.56 1131.97 2838.26 1132.83 2839.42 1133.53 2841.03 1134.07L2846.99 1135.25 2846.99 1242.12 2798.02 1242.12 2800.48 1240.78C2801.93 1239.49 2803.08 1237.88 2803.94 1235.95 2804.8 1234.01 2805.23 1231.81 2805.23 1229.34L2805.23 1042.07C2805.23 1040.99 2804.96 1040.03 2804.43 1039.17 2803.89 1038.31 2802.95 1037.56 2801.61 1036.91 2800.27 1036.27 2798.36 1035.81 2795.89 1035.54 2793.42 1035.28 2790.36 1035.14 2786.71 1035.14 2782.84 1035.14 2779.68 1035.28 2777.21 1035.54 2774.74 1035.81 2772.75 1036.27 2771.25 1036.91 2769.74 1037.56 2768.67 1038.31 2768.02 1039.17 2767.38 1040.03 2767.06 1040.99 2767.06 1042.07L2767.06 1139.81C2767.06 1147.22 2767.14 1155 2767.3 1163.16 2767.46 1171.32 2767.7 1179.16 2768.02 1186.67L2767.86 1186.67C2765.93 1182.38 2763.94 1178.08 2761.9 1173.79 2759.86 1169.49 2757.77 1165.12 2755.62 1160.66 2753.47 1156.21 2751.25 1151.75 2748.94 1147.3 2746.63 1142.84 2744.29 1138.31 2741.93 1133.69L2701.34 1057.52C2699.3 1053.34 2697.31 1049.82 2695.38 1046.98 2693.45 1044.13 2691.38 1041.9 2689.18 1040.29 2686.98 1038.68 2684.48 1037.53 2681.69 1036.83 2678.9 1036.13 2675.46 1035.79 2671.38 1035.79L2648.67 1035.79C2644.38 1035.79 2640.75 1037.05 2637.8 1039.57 2634.85 1042.09 2633.37 1045.88 2633.37 1050.92L2633.37 1231.41 2623.99 1232.34 2623.5 1232.51 2623.5 1095.05C2623.5 1093.97 2623.18 1093.03 2622.54 1092.23 2621.89 1091.42 2620.82 1090.75 2619.31 1090.21 2617.81 1089.68 2615.77 1089.28 2613.19 1089.01 2610.62 1088.74 2607.34 1088.6 2603.37 1088.6 2599.39 1088.6 2596.12 1088.74 2593.54 1089.01 2590.97 1089.28 2588.9 1089.68 2587.34 1090.21 2585.78 1090.75 2584.71 1091.42 2584.12 1092.23 2583.53 1093.03 2583.23 1093.97 2583.23 1095.05L2583.23 1190.54C2577.33 1197.73 2571.77 1203.2 2566.56 1206.96 2561.35 1210.72 2556.17 1212.6 2551.02 1212.6 2546.94 1212.6 2543.37 1211.82 2540.31 1210.26 2537.25 1208.71 2534.73 1206.51 2532.74 1203.66 2530.75 1200.82 2529.28 1197.41 2528.31 1193.44 2527.34 1189.46 2526.86 1183.72 2526.86 1176.2L2526.86 1095.05C2526.86 1093.97 2526.54 1093.03 2525.89 1092.23 2525.25 1091.42 2524.15 1090.75 2522.59 1090.21 2521.03 1089.68 2518.97 1089.28 2516.39 1089.01L2514.29 1088.92 2515.33 1084.64C2515.59 1082.5 2515.73 1079.81 2515.73 1076.59 2515.73 1073.37 2515.59 1070.69 2515.33 1068.54 2515.06 1066.39 2514.63 1064.68 2514.04 1063.39 2513.45 1062.1 2512.78 1061.19 2512.02 1060.65 2511.27 1060.11 2510.41 1059.84 2509.45 1059.84L2445.5 1059.84ZM2294.5 1025.66 2402.98 1025.66 2402.98 1171.44C2402.98 1172.62 2403.33 1173.64 2404.03 1174.5 2404.72 1175.36 2405.88 1176.08 2407.49 1176.67 2409.1 1177.26 2411.27 1177.72 2414.01 1178.04 2416.75 1178.36 2420.16 1178.52 2424.24 1178.52 2428.43 1178.52 2431.86 1178.36 2434.55 1178.04 2437.23 1177.72 2439.41 1177.26 2441.07 1176.67 2442.74 1176.08 2443.89 1175.36 2444.54 1174.5 2445.18 1173.64 2445.5 1172.62 2445.5 1171.44L2445.5 1093.82 2486.82 1093.82 2486.43 1095.05 2486.43 1182.97C2486.43 1193.92 2487.32 1203.07 2489.09 1210.42 2490.86 1217.78 2493.81 1224.25 2497.95 1229.83L2513.09 1242.12 2294.5 1242.12ZM2415.54 969.184 2513.63 969.184C2514.6 969.184 2515.46 969.479 2516.21 970.069 2516.96 970.66 2517.63 971.626 2518.22 972.968 2518.82 974.31 2519.25 976.108 2519.51 978.363 2519.78 980.617 2519.92 983.354 2519.92 986.575 2519.92 989.796 2519.78 992.506 2519.51 994.707 2519.25 996.908 2518.82 998.652 2518.22 999.941 2517.63 1001.23 2516.96 1002.19 2516.21 1002.84 2515.46 1003.48 2514.6 1003.81 2513.63 1003.81L2445.5 1003.81 2445.5 1025.66 2402.98 1025.66 2402.98 982.549C2402.98 977.826 2404.19 974.417 2406.6 972.324 2409.02 970.23 2412 969.184 2415.54 969.184ZM2784.33 926.5 2931.23 926.5C2932.19 926.5 2933.08 926.795 2933.88 927.386 2934.69 927.976 2935.36 928.942 2935.9 930.284 2936.43 931.626 2936.84 933.424 2937.11 935.679 2937.37 937.933 2937.51 940.671 2937.51 943.891 2937.51 947.004 2937.37 949.661 2937.11 951.862 2936.84 954.063 2936.43 955.834 2935.9 957.176 2935.36 958.518 2934.69 959.511 2933.88 960.155 2933.08 960.799 2932.19 961.121 2931.23 961.121L2879.04 961.121 2879.04 1025.66 2836.52 1025.66 2836.52 961.121 2784.33 961.121C2783.26 961.121 2782.34 960.799 2781.59 960.155 2780.84 959.511 2780.2 958.518 2779.66 957.176 2779.12 955.834 2778.72 954.063 2778.45 951.862 2778.18 949.661 2778.05 947.004 2778.05 943.891 2778.05 940.671 2778.18 937.933 2778.45 935.679 2778.72 933.424 2779.12 931.626 2779.66 930.284 2780.2 928.942 2780.84 927.976 2781.59 927.386 2782.34 926.795 2783.26 926.5 2784.33 926.5Z" stroke="#FFFFFF" stroke-width="6.875" stroke-miterlimit="8" fill="#70AD47" fill-rule="evenodd"/></g></svg>